<svg xmlns="http://www.w3.org/2000/svg" width="1080" height="1080" version="1.0" viewBox="0 0 810 810"><defs><clipPath id="a"><path d="M177 295h309v212H177Zm0 0"/></clipPath><clipPath id="b"><path d="m182.035 292.336 321.82 37.5-21.87 187.73-321.825-37.5Zm0 0"/></clipPath><clipPath id="c"><path d="m182.035 292.336 321.82 37.5-21.87 187.73-321.825-37.5Zm0 0"/></clipPath><clipPath id="d"><path d="m182.035 292.336 321.82 37.5-21.87 187.73-321.825-37.5Zm0 0"/></clipPath></defs><g clip-path="url(#a)"><g clip-path="url(#b)"><g clip-path="url(#c)"><g clip-path="url(#d)"><path d="M485.066 483.95a2.144 2.144 0 0 0-2.957-.692c-.226.137-23.152 14.215-53.457 18.3-38.66 5.215-71.187-7.331-96.761-37.285 14.804.739 29.597-1.894 43.68-7.882 19.734-8.38 36.523-22.641 47.273-40.172 16.312-26.59 14.875-54.883-3.742-73.844-9.97-10.148-24.516-14.457-40.954-12.129-15.308 2.164-30.953 9.719-44.054 21.258-25.614 22.578-43.5 63.887-11.91 107.43a96.628 96.628 0 0 1-14.27-3.344c-58.383-18.38-90.453-69.727-95.332-152.606l35.309 27.254a2.154 2.154 0 0 0 3.015-.386 2.146 2.146 0 0 0-.383-3.012l-39.507-30.496a2.15 2.15 0 0 0-3.016.383l-30.508 39.492a2.154 2.154 0 0 0 3.41 2.633l27.399-35.473c5.023 84.754 38.09 137.351 98.32 156.32a101.348 101.348 0 0 0 19.277 4.09c14.727 18.293 32.125 30.938 51.727 37.602 6.922 2.355 14.125 3.964 21.563 4.832 9.69 1.129 19.785.988 30.19-.422 31.188-4.238 54.044-18.297 55.005-18.883a2.155 2.155 0 0 0 .683-2.969ZM336.941 354.737c12.293-10.84 27.536-18.215 41.813-20.23 4.113-.586 8.898-.844 13.89-.262 7.907.922 16.325 3.953 23.395 11.152 17.426 17.747 18.598 43.387 3.14 68.586-16.757 27.317-51.75 49.235-91.058 45.684-33.21-42.43-16.058-83.012 8.82-104.93Zm0 0"/></g></g></g></g><path fill="#231f20" d="M472.31 454.897c-.43.304-1.093.261-2-.125-.906-.383-2.003-1.29-3.296-2.719-1.301-1.426-2.692-3.633-4.172-6.625-.156-.29-.36-.66-.61-1.11a76.001 76.001 0 0 1-1.984-4.03c-.726-1.57-1.25-3.047-1.562-4.422-.32-1.383-.204-2.391.359-3.016 1.781-1.707 3.324-1.582 4.625.375.336.625.652 1.273.953 1.937.125.325.277.657.453 1 .461.961.914 1.899 1.36 2.813.43.793.812 1.578 1.156 2.36.273.491.664 1.21 1.172 2.155a67.669 67.669 0 0 1 2.39 4.297c.82 1.586 1.391 3.04 1.704 4.36.312 1.324.128 2.242-.547 2.75Zm-14.093-30.64c-.102.386-.36.733-.766 1.046-.406.305-.765.453-1.078.453a2.031 2.031 0 0 1-.937-.562c-.25-.258-.489-.602-.72-1.032a.848.848 0 0 0-.108-.343 5.498 5.498 0 0 1-.329-1.344c-.175-1.395.47-2.383 1.938-2.969.512-.219.984-.223 1.422-.016.43.211.719.56.875 1.047a7.17 7.17 0 0 1-.297 3.72Zm0 0"/><path fill="#231f20" d="M475.095 406.619c.324-.125.636-.024.937.297.293.324.5.715.625 1.172.117.449.027.757-.265.922l-10.922 5.812.171.297c.825 1.625 1.762 3.59 2.813 5.89a301.46 301.46 0 0 0 7.39 14.485c.887 1.637 2.227 3.836 4.016 6.594 1.79 2.761 3.656 5.09 5.594 6.984.125.125.422.328.89.61a17.49 17.49 0 0 1 1.75 1.202c.602.461 1 .891 1.188 1.297.188.407-.055.696-.719.86-2.273.418-4.578-.32-6.921-2.219-2.333-1.895-4.598-4.36-6.797-7.39a87.843 87.843 0 0 1-5.875-9.188c-1.72-3.102-3.063-5.649-4.032-7.64-.656-1.345-1.316-2.692-1.984-4.048a623.526 623.526 0 0 1-2.563-5.062l-8.296 4.344c-.688.375-1.157.46-1.407.25-.257-.22-.336-.536-.234-.953.094-.415.328-.754.703-1.016l8.203-4.64-3.781-8.25a473.198 473.198 0 0 1-1.813-4.063 43.801 43.801 0 0 1-1.078-2.14 6.8 6.8 0 0 1-.828-3.282c.168-1.102.727-1.785 1.672-2.047.887-.145 1.586.148 2.094.875a53.361 53.361 0 0 1 2.25 3.797c.406.742.808 1.48 1.203 2.219.45.824.902 1.652 1.36 2.484l3.873 7.625Zm0 0"/><path fill="#231f20" d="M495.363 430.378c1.3.563 2.347 1.313 3.14 2.25.8.938 1.504 2.043 2.11 3.313.613 1.261.812 2.574.593 3.937-.21 1.367-1.12 2.617-2.734 3.75-1.656 1.074-3.344 1.652-5.063 1.734-1.718.075-3.093-.421-4.125-1.484-1.03-1.062-1.41-2.758-1.14-5.094a13.736 13.736 0 0 1 1.5-3.984c.25-.457.5-.941.75-1.453a89.195 89.195 0 0 1-6.188-2.36c-2.008-.863-3.508-1.796-4.5-2.796-1.094-1.176-1.562-2.594-1.406-4.25.156-1.664 1.195-3.145 3.11-4.438.937-.625 1.89-1.078 2.859-1.36.968-.28 2.008-.3 3.11-.062.241.086.444.203.609.36.167.148.265.402.296.765 0 .586-.25 1.012-.75 1.282a4.709 4.709 0 0 1-1.109.421c-.445.043-.852.078-1.219.11h-.75c-.781.105-1.258.414-1.437.922-.176.5-.086 1.074.265 1.718.68 1.125 1.82 2.094 3.422 2.907a77.088 77.088 0 0 0 4.61 2.156c.562.2 1.066.406 1.515.625.383.117 1.227.46 2.531 1.031Zm.312 11.5c.633-.394.867-.984.703-1.766-.168-.789-.496-1.57-.984-2.343a57.57 57.57 0 0 0-1.14-1.735c-.22-.195-.466-.265-.735-.203-.262.055-.469.18-.625.375a5.948 5.948 0 0 0-.422 3.11c.133 1.086.586 1.851 1.36 2.296.269.18.566.297.89.36.32.062.64.031.953-.094Zm0 0"/><path fill="#231f20" d="M552.995 397.759c-.68 4.73-1.899 8.196-3.657 10.39-1.75 2.188-3.695 3.532-5.828 4.032-2.136.492-4.172.559-6.109.203-1.93-.363-3.445-.758-4.547-1.187a4.225 4.225 0 0 0-.844-.282c8.696 5.619 15.438 11.125 20.221 16.533 4.788 5.394 7.94 10.304 9.452 14.734 1.52 4.426 1.719 8.024.594 10.797-1.117 2.781-3.2 4.379-6.25 4.797-3.055.426-6.793-.664-11.219-3.266-4.43-2.593-9.183-7.07-14.265-13.422-5.087-6.344-10.173-14.907-15.267-25.688-5.094-10.781-9.895-24.145-14.406-40.094-1.02-3.758-2.02-8.273-3-13.547a89.427 89.427 0 0 1-1.516-15.75c-.031-5.219.856-9.758 2.656-13.625a12.384 12.384 0 0 1 3.344-4.125c3.649-2.883 6.758-3.969 9.328-3.25 2.574.711 4.684 2.696 6.328 5.953 1.637 3.262 2.887 7.352 3.75 12.266.856 4.918 1.45 10.184 1.782 15.797.336 5.605.453 11.09.359 16.453-.094 5.355-.266 10.102-.516 14.234-.257 4.137-.539 7.215-.843 9.235a28.47 28.47 0 0 1-.204 1.953c-.039.336-.082.703-.125 1.11 6.313 3.179 11.336 4.964 15.079 5.359 3.738.398 6.546-.055 8.421-1.36 1.875-1.312 3.172-2.96 3.891-4.953.727-2 1.188-3.851 1.375-5.562.133-.832.281-1.516.438-2.047.156-.54.351-.844.593-.907.813-.25 1.243.188 1.297 1.313.063 1.117-.043 2.418-.312 3.906Zm-37.485.297c.606 1.531 1.164 2.418 1.672 2.656.5.243.856-.629 1.063-2.609.367-2.863.68-6.703.937-11.516.262-4.812.39-10.066.39-15.765 0-5.696-.253-11.317-.765-16.86-.508-5.539-1.394-10.476-2.656-14.812-1.27-4.344-3.066-7.57-5.39-9.688-.977-.906-2.032-1.207-3.157-.906-1.125.293-2.094 1.047-2.906 2.266-1.625 2.68-2.477 6.297-2.563 10.86-.082 4.562.375 9.577 1.375 15.046a181.835 181.835 0 0 0 3.75 16.328c1.512 5.406 3.016 10.32 4.516 14.734 1.492 4.407 2.734 7.829 3.734 10.266Zm41.953 55.734c1.583-2.023 1.626-4.703.126-8.046-1.5-3.344-3.934-6.985-7.297-10.922-3.356-3.93-7.059-7.742-11.111-11.454-4.054-3.72-7.867-6.942-11.437-9.672-3.563-2.739-6.285-4.582-8.172-5.532 3.743 8.376 7.665 15.611 11.782 21.706 4.113 6.082 8.024 11.015 11.735 14.796 3.707 3.782 6.863 6.415 9.468 7.907 2.602 1.488 4.239 1.894 4.907 1.218Zm0 0"/><path fill="#231f20" d="M571.872 383.743c-.055-1.113.015-1.675.203-1.687.195-.008.43.328.703 1.016.27.68.523 1.468.766 2.375.375 1.406.644 3.12.812 5.14.164 2.012.164 3.914 0 5.703-.281 2.555-1.133 4.82-2.547 6.797-1.418 1.98-3.039 3.156-4.86 3.531-1.812.375-3.51-.609-5.093-2.953-1.168-2.029-2.219-4.389-3.156-7.078a76.846 76.846 0 0 1-1.219-3.281c-.187-.352-.426-.578-.719-.672-.289-.094-.566-.039-.828.156-.207.118-.437.243-.687.375-1.102.868-2.364 1.528-3.781 1.985-1.782.386-3.083.117-3.907-.813-.832-.937-1.566-2.351-2.203-4.25-.52-1.32-.566-2.5-.14-3.531.43-1.031 1.187-1.77 2.28-2.219 1.512-.656 2.509-.484 2.985.516.48.992.774 2.168.875 3.531.055 1.168.242 2.07.563 2.703.312.637.953.563 1.921-.218.22-.188.45-.41.688-.672.324-.375.71-.766 1.156-1.172.45-.407 1.102-.797 1.953-1.172 1.024-.488 1.926-.39 2.72.297.788.687 1.519 1.695 2.187 3.015a33.293 33.293 0 0 1 1.78 4.188c.677 1.812 1.337 3.32 1.985 4.515.657 1.2 1.39 1.711 2.203 1.532 1.051-.258 1.973-1.844 2.766-4.75.79-2.914.988-7.219.594-12.906Zm0 0"/><path fill="#231f20" d="M600.961 367.928a7.255 7.255 0 0 1 1.031-1.281c.383-.375.676-.52.875-.438.207.075.227.547.063 1.422-.637 2.649-1.625 5.282-2.969 7.907a53.482 53.482 0 0 1-4.5 7.296 38.063 38.063 0 0 1-4.61 4.953c-1.718 1.543-3.62 2.704-5.702 3.485-2.075.781-4.282.883-6.625.297-2.914-.864-5.25-2.703-7-5.516-1.75-2.82-2.399-5.64-1.954-8.453.782-3.352 2.543-6.191 5.282-8.516 2.73-2.332 5.773-3.351 9.14-3.062 1.645.187 2.657.898 3.032 2.125.382 1.23.351 2.594-.094 4.094-.438 1.492-1.117 2.804-2.031 3.937-1.399 1.668-2.914 2.672-4.547 3.016-1.625.343-3.02.383-4.188.11-.445.5-.363 1.476.25 2.921 1.031 2.781 2.98 4.445 5.844 4.984 2.3.356 4.547-.425 6.734-2.343 2.188-1.926 4.204-4.305 6.047-7.141 1.852-2.832 3.457-5.445 4.813-7.844.426-.676.797-1.328 1.11-1.953Zm-19.906 2.39c-.524-.238-1.094-.132-1.719.313-.625.45-1.195 1.032-1.719 1.75a13.746 13.746 0 0 0-1.28 2.063c-.333.656-.423 1.043-.267 1.156.055.094.204.227.454.39.242.157.546.294.921.407.376.105.805.094 1.282-.031.468-.125.992-.442 1.562-.953.875-.852 1.39-1.63 1.547-2.329.156-.695.133-1.289-.062-1.78-.188-.5-.43-.829-.72-.985Zm0 0"/><path fill="#231f20" d="M629.479 352.418a7.255 7.255 0 0 1 1.031-1.281c.383-.375.676-.52.875-.438.207.075.227.547.063 1.422-.637 2.649-1.625 5.282-2.969 7.907a53.482 53.482 0 0 1-4.5 7.296 38.063 38.063 0 0 1-4.61 4.953c-1.718 1.543-3.62 2.704-5.702 3.485-2.075.781-4.282.883-6.625.297-2.914-.864-5.25-2.703-7-5.516-1.75-2.82-2.399-5.64-1.954-8.453.782-3.352 2.543-6.191 5.282-8.516 2.73-2.332 5.773-3.351 9.14-3.062 1.645.187 2.657.898 3.032 2.125.382 1.23.351 2.594-.094 4.094-.438 1.492-1.117 2.804-2.031 3.937-1.399 1.668-2.914 2.672-4.547 3.016-1.625.343-3.02.383-4.188.11-.445.5-.363 1.476.25 2.921 1.031 2.781 2.98 4.445 5.844 4.984 2.3.356 4.547-.425 6.734-2.343 2.188-1.926 4.204-4.305 6.047-7.141 1.852-2.832 3.457-5.445 4.813-7.844.426-.676.797-1.328 1.11-1.953Zm-19.906 2.39c-.524-.238-1.094-.132-1.719.313-.625.45-1.195 1.032-1.719 1.75a13.746 13.746 0 0 0-1.28 2.063c-.333.656-.423 1.043-.267 1.156.055.094.204.227.454.39.242.157.546.294.921.407.376.105.805.094 1.282-.031.468-.125.992-.442 1.562-.953.875-.852 1.39-1.63 1.547-2.329.156-.695.133-1.289-.062-1.78-.188-.5-.43-.829-.72-.985Zm0 0"/></svg>