<svg xmlns="http://www.w3.org/2000/svg" width="1080" viewBox="0 0 810 810" height="1080" version="1.0">
    <defs>
        <clipPath id="a">
            <path d="M69 171h61v57H69Zm0 0"/>
        </clipPath>
        <clipPath id="b">
            <path d="m8.578 308.777 86.375-198.793 152.711 66.352-86.379 198.793Zm0 0"/>
        </clipPath>
        <clipPath id="c">
            <path d="M94.898 110.113 8.523 308.906l152.707 66.352 86.375-198.793Zm0 0"/>
        </clipPath>
        <clipPath id="d">
            <path d="M43 228h65v54H43Zm0 0"/>
        </clipPath>
        <clipPath id="e">
            <path d="m8.578 308.777 86.375-198.793 152.711 66.352-86.379 198.793Zm0 0"/>
        </clipPath>
        <clipPath id="f">
            <path d="M94.898 110.113 8.523 308.906l152.707 66.352 86.375-198.793Zm0 0"/>
        </clipPath>
        <clipPath id="g">
            <path d="M127 141h55v63h-55Zm0 0"/>
        </clipPath>
        <clipPath id="h">
            <path d="m8.578 308.777 86.375-198.793 152.711 66.352-86.379 198.793Zm0 0"/>
        </clipPath>
        <clipPath id="i">
            <path d="M94.898 110.113 8.523 308.906l152.707 66.352 86.375-198.793Zm0 0"/>
        </clipPath>
        <clipPath id="j">
            <path d="M62 285h64v57H62Zm0 0"/>
        </clipPath>
        <clipPath id="k">
            <path d="m8.578 308.777 86.375-198.793 152.711 66.352-86.379 198.793Zm0 0"/>
        </clipPath>
        <clipPath id="l">
            <path d="M94.898 110.113 8.523 308.906l152.707 66.352 86.375-198.793Zm0 0"/>
        </clipPath>
        <clipPath id="m">
            <path d="m78.531 275.215-23.46 53.996 54.835 23.828 23.465-53.996Zm0 0"/>
        </clipPath>
        <clipPath id="n">
            <path d="m78.531 275.215-23.433 53.933 54.84 23.829 23.433-53.934Zm0 0"/>
        </clipPath>
        <clipPath id="o">
            <path d="M121 212h96v104h-96Zm0 0"/>
        </clipPath>
        <clipPath id="p">
            <path d="m8.578 308.777 86.375-198.793 152.711 66.352-86.379 198.793Zm0 0"/>
        </clipPath>
        <clipPath id="q">
            <path d="M94.898 110.113 8.523 308.906l152.707 66.352 86.375-198.793Zm0 0"/>
        </clipPath>
        <clipPath id="r">
            <path d="m145.813 197.281-40.461 93.125 77.992 33.887 40.46-93.125Zm0 0"/>
        </clipPath>
        <clipPath id="s">
            <path d="m145.813 197.281-40.461 93.125 77.988 33.883 40.46-93.121Zm0 0"/>
        </clipPath>
        <clipPath id="t">
            <path d="M685 166h57v58h-57Zm0 0"/>
        </clipPath>
        <clipPath id="u">
            <path d="m697.234 110.117 126.805 167.39-128.531 97.372-126.809-167.39Zm0 0"/>
        </clipPath>
        <clipPath id="v">
            <path d="m697.234 110.117 126.805 167.39-128.531 97.372-126.809-167.39Zm0 0"/>
        </clipPath>
        <clipPath id="w">
            <path d="M717 215h63v54h-63Zm0 0"/>
        </clipPath>
        <clipPath id="x">
            <path d="m697.234 110.117 126.805 167.39-128.531 97.372-126.809-167.39Zm0 0"/>
        </clipPath>
        <clipPath id="y">
            <path d="m697.234 110.117 126.805 167.39-128.531 97.372-126.809-167.39Zm0 0"/>
        </clipPath>
        <clipPath id="z">
            <path d="M629 151h53v62h-53Zm0 0"/>
        </clipPath>
        <clipPath id="A">
            <path d="m697.234 110.117 126.805 167.39-128.531 97.372-126.809-167.39Zm0 0"/>
        </clipPath>
        <clipPath id="B">
            <path d="m697.234 110.117 126.805 167.39-128.531 97.372-126.809-167.39Zm0 0"/>
        </clipPath>
        <clipPath id="C">
            <path d="M713 275h63v53h-63Zm0 0"/>
        </clipPath>
        <clipPath id="D">
            <path d="m697.234 110.117 126.805 167.39-128.531 97.372-126.809-167.39Zm0 0"/>
        </clipPath>
        <clipPath id="E">
            <path d="m697.234 110.117 126.805 167.39-128.531 97.372-126.809-167.39Zm0 0"/>
        </clipPath>
        <clipPath id="F">
            <path d="m750.434 261.797 34.445 45.465-46.156 34.965-34.442-45.465Zm0 0"/>
        </clipPath>
        <clipPath id="G">
            <path d="m750.434 261.797 34.402 45.414-46.152 34.96-34.403-45.41Zm0 0"/>
        </clipPath>
        <clipPath id="H">
            <path d="M612 222h98v100h-98Zm0 0"/>
        </clipPath>
        <clipPath id="I">
            <path d="m697.234 110.117 126.805 167.39-128.531 97.372-126.809-167.39Zm0 0"/>
        </clipPath>
        <clipPath id="J">
            <path d="m697.234 110.117 126.805 167.39-128.531 97.372-126.809-167.39Zm0 0"/>
        </clipPath>
        <clipPath id="K">
            <path d="m669.27 203.813 59.402 78.414-65.64 49.726-59.403-78.414Zm0 0"/>
        </clipPath>
        <clipPath id="L">
            <path d="m669.27 203.813 59.402 78.414-65.64 49.722-59.4-78.41Zm0 0"/>
        </clipPath>
    </defs>
    <g clip-path="url(#a)">
        <g clip-path="url(#b)">
            <g clip-path="url(#c)">
                <path fill="pink" d="M73.488 182.742c-20.336 33.223 41.836 63.633 54.524 30.23 10.203-26.85-36.848-59.1-54.524-30.23" fill-rule="evenodd"/>
            </g>
        </g>
    </g>
    <g clip-path="url(#d)">
        <g clip-path="url(#e)">
            <g clip-path="url(#f)">
                <path fill="pink" d="M48.781 239.605c-25.441 35.266 45.817 60.82 57.711 22.899 9.414-30.016-41.43-45.465-57.71-22.899" fill-rule="evenodd"/>
            </g>
        </g>
    </g>
    <g clip-path="url(#g)">
        <g clip-path="url(#h)">
            <g clip-path="url(#i)">
                <path fill="pink" d="M155.258 203.012c36.297-.703 33.258-52.223 1.203-60.54-33.758-8.757-42.184 54.712-1.203 60.54" fill-rule="evenodd"/>
            </g>
        </g>
    </g>
    <g clip-path="url(#j)">
        <g clip-path="url(#k)">
            <g clip-path="url(#l)">
                <g clip-path="url(#m)">
                    <g clip-path="url(#n)">
                        <path fill="pink" d="M67.809 301.3c-5.727 8.348-7.434 21.15-1.582 28.75 16.156 20.97 51.527 10.63 58.53-11.64 3.852-12.226-3.175-23.308-11.823-28.031-18.528-10.117-36.536-1.602-45.125 10.922" fill-rule="evenodd"/>
                    </g>
                </g>
            </g>
        </g>
    </g>
    <g clip-path="url(#o)">
        <g clip-path="url(#p)">
            <g clip-path="url(#q)">
                <g clip-path="url(#r)">
                    <g clip-path="url(#s)">
                        <path fill="pink" d="M130.535 234.79c-19.508 29.722-9.148 69.296 33.004 79.757 8.727 2.164 23.266.168 28.168-9.57 3.961-7.856.203-20.692 4.613-30.7 5.473-12.433 20.793-17.449 20.254-31.547-.457-11.84-17.797-24.078-32.457-28.273-21.137-6.05-41.824 2.418-53.582 20.332" fill-rule="evenodd"/>
                    </g>
                </g>
            </g>
        </g>
    </g>
    <g clip-path="url(#t)">
        <g clip-path="url(#u)">
            <g clip-path="url(#v)">
                <path fill="pink" d="M734.008 173.598c26.742 26.625-24.805 69.46-44.395 40.918-15.75-22.946 21.149-64.059 44.395-40.918" fill-rule="evenodd"/>
            </g>
        </g>
    </g>
    <g clip-path="url(#w)">
        <g clip-path="url(#x)">
            <g clip-path="url(#y)">
                <path fill="pink" d="M770.277 221.477c32.02 27.382-29.191 67.726-49.07 34.746-15.73-26.106 28.582-52.266 49.07-34.746" fill-rule="evenodd"/>
            </g>
        </g>
    </g>
    <g clip-path="url(#z)">
        <g clip-path="url(#A)">
            <g clip-path="url(#B)">
                <path fill="pink" d="M661.691 211.367c-34.32 7.633-43.254-41.558-14.992-56.71 29.77-15.966 52.227 41.855 14.992 56.71" fill-rule="evenodd"/>
            </g>
        </g>
    </g>
    <g clip-path="url(#C)">
        <g clip-path="url(#D)">
            <g clip-path="url(#E)">
                <g clip-path="url(#F)">
                    <g clip-path="url(#G)">
                        <path fill="pink" d="M766.496 283.902c7.3 6.551 11.84 18.211 8.07 26.703-10.402 23.43-46.058 21.782-57.746 2.418-6.425-10.625-2.347-22.664 4.707-29.09 15.121-13.757 34.02-9.855 44.97-.03" fill-rule="evenodd"/>
                    </g>
                </g>
            </g>
        </g>
    </g>
    <g clip-path="url(#H)">
        <g clip-path="url(#I)">
            <g clip-path="url(#J)">
                <g clip-path="url(#K)">
                    <g clip-path="url(#L)">
                        <path fill="pink" d="M692.234 235.629c25.168 23.523 24.477 63.14-12.797 82.625-7.718 4.031-21.855 5.473-28.703-2.57-5.527-6.493-4.93-19.434-11.367-27.848-7.996-10.453-23.566-11.672-26.285-25.066-2.281-11.25 11.234-26.735 24.074-34.032 18.504-10.527 39.914-7.285 55.078 6.89" fill-rule="evenodd"/>
                    </g>
                </g>
            </g>
        </g>
    </g>
</svg>