<svg xmlns="http://www.w3.org/2000/svg"
    xmlns:xlink="http://www.w3.org/1999/xlink" width="500" zoomAndPan="magnify" viewBox="0 0 375 374.999991" height="500" preserveAspectRatio="xMidYMid meet" version="1.0">
    <defs>
        <g/>
        <clipPath id="cb136ef634">
            <path d="M 132 100 L 246 100 L 246 200.390625 L 132 200.390625 Z M 132 100 " clip-rule="nonzero"/>
        </clipPath>
        <clipPath id="d04c3716a3">
            <path d="M 135 100 L 240 100 L 240 200.390625 L 135 200.390625 Z M 135 100 " clip-rule="nonzero"/>
        </clipPath>
        <clipPath id="4ffecd0984">
            <path d="M 132 101 L 246 101 L 246 200.390625 L 132 200.390625 Z M 132 101 " clip-rule="nonzero"/>
        </clipPath>
        <clipPath id="710b602ee7">
            <path d="M 117 99.140625 L 247 99.140625 L 247 200.390625 L 117 200.390625 Z M 117 99.140625 " clip-rule="nonzero"/>
        </clipPath>
        <clipPath id="dc3a7b16ab">
            <path d="M 66.847656 194.167969 L 308.347656 194.167969 L 308.347656 286.417969 L 66.847656 286.417969 Z M 66.847656 194.167969 " clip-rule="nonzero"/>
        </clipPath>
    </defs>
    <g clip-path="url(#cb136ef634)">
        <path fill="#ffffff" d="M 143.019531 200.324219 C 143.019531 200.324219 142.382812 200.324219 141.613281 196.117188 C 140.660156 190.855469 142.808594 181.121094 143.125 180.355469 C 140.925781 178.6875 132.34375 170.699219 132.769531 159.644531 C 133.191406 148.589844 141.484375 137.429688 141.484375 137.429688 C 141.484375 137.429688 142.726562 113.96875 155.175781 100.664062 C 159.707031 101.117188 172.5 112.117188 174.832031 114.179688 C 180.714844 112.382812 197.507812 112.621094 203.730469 114.128906 C 203.730469 114.128906 212.234375 104.394531 223.996094 101.222656 C 225.984375 101.933594 239.359375 124.308594 236.871094 137.667969 C 240.871094 141.316406 254.566406 162.050781 235.757812 181.359375 C 239.359375 191.4375 237.082031 200.347656 237.082031 200.347656 Z M 143.019531 200.324219 C 143.019531 200.324219 141.613281 199.609375 141.246094 197.070312 C 140.421875 191.488281 142.753906 181.332031 143.125 180.378906 C 140.925781 178.714844 132.34375 170.726562 132.769531 159.671875 C 133.191406 148.617188 141.484375 137.453125 141.484375 137.453125 C 141.484375 137.453125 142.199219 114.523438 154.648438 101.222656 C 159.175781 101.671875 172.5 112.144531 174.832031 114.207031 C 180.714844 112.410156 197.507812 112.648438 203.730469 114.152344 C 203.730469 114.152344 211.519531 104.421875 223.253906 101.246094 C 225.242188 101.960938 239.332031 124.335938 236.84375 137.691406 C 240.84375 141.34375 254.539062 162.078125 235.730469 181.386719 C 239.332031 191.460938 236.816406 200.375 236.816406 200.375 L 143.019531 200.375 Z M 143.019531 200.324219 " fill-opacity="1" fill-rule="nonzero"/>
    </g>
    <g clip-path="url(#d04c3716a3)">
        <path fill="#efb07d" d="M 182.726562 113.308594 C 182.726562 113.308594 198.273438 130.578125 178.089844 146.5 C 157.90625 162.421875 132.316406 154.382812 135.789062 147.53125 C 135.789062 147.53125 139.152344 139.015625 142.304688 137.03125 C 140.371094 131.925781 144.925781 117.671875 149.085938 109.234375 C 149.085938 109.234375 153.269531 101.246094 155.175781 100.691406 C 157.085938 100.136719 169.402344 108.707031 174.382812 113.253906 C 177.5625 113.652344 182.726562 113.308594 182.726562 113.308594 Z M 228.421875 200.324219 C 228.421875 200.324219 235.890625 198.3125 239.625 191.410156 C 235.203125 180.511719 230.40625 165.597656 226.328125 162.792969 C 222.246094 159.988281 221.136719 162.371094 219.464844 164.882812 C 217.929688 162.050781 213.425781 159.882812 212.023438 164.882812 C 210.273438 162.527344 205.003906 162.183594 205.214844 170.675781 C 205.453125 179.164062 210.0625 200.324219 210.0625 200.324219 Z M 228.421875 200.324219 " fill-opacity="1" fill-rule="nonzero"/>
    </g>
    <g clip-path="url(#4ffecd0984)">
        <path fill="#ef5454" d="M 154.328125 123.226562 C 154.328125 123.226562 150.515625 129.070312 147.417969 134.359375 C 147.335938 116.191406 156.34375 108.28125 156.34375 108.28125 C 154.039062 113.203125 154.328125 123.226562 154.328125 123.226562 Z M 224.183594 123.226562 C 224.183594 123.226562 227.625 129.070312 230.75 134.359375 C 230.832031 116.191406 221.824219 108.28125 221.824219 108.28125 C 224.128906 113.203125 224.183594 123.226562 224.183594 123.226562 Z M 147.417969 170.460938 C 132.582031 158.957031 138.382812 142.902344 138.382812 142.902344 C 130.226562 151.65625 130.992188 170.144531 140.503906 179.429688 C 141.191406 180.089844 141.933594 180.722656 142.753906 181.304688 C 144.15625 177.921875 146.09375 173.503906 147.417969 170.460938 Z M 171.390625 184.664062 L 170.566406 189.875 C 175.707031 190.324219 180.210938 190.21875 182.992188 189.609375 C 180.476562 188.472656 176.367188 186.941406 171.390625 184.664062 Z M 207.679688 184.164062 C 202.195312 186.703125 197.667969 188.394531 194.964844 189.609375 C 197.878906 190.246094 202.671875 190.351562 208.078125 189.824219 Z M 239.597656 142.902344 C 239.597656 142.902344 245.320312 158.746094 230.832031 170.222656 C 232.050781 173.1875 234.089844 178.054688 235.519531 181.066406 C 236.207031 180.539062 236.871094 179.984375 237.453125 179.429688 C 246.988281 170.144531 247.757812 151.65625 239.597656 142.902344 Z M 223.015625 162.820312 C 223.015625 162.820312 227.441406 167.792969 228.816406 181.332031 C 230.195312 194.875 225.507812 200.324219 225.507812 200.324219 L 239.597656 200.324219 C 239.597656 200.324219 241.265625 197.492188 239.863281 193.207031 C 238.484375 188.921875 229.796875 165.359375 225.480469 162.792969 C 221.1875 160.226562 223.015625 162.820312 223.015625 162.820312 Z M 152.34375 162.765625 C 148.027344 165.332031 139.335938 188.921875 137.960938 193.179688 C 136.582031 197.464844 138.222656 200.296875 138.222656 200.296875 L 152.316406 200.296875 C 152.316406 200.296875 147.601562 194.820312 149.003906 181.304688 C 150.382812 167.765625 154.808594 162.792969 154.808594 162.792969 C 154.808594 162.792969 156.660156 160.226562 152.34375 162.765625 Z M 194.539062 171.601562 C 194.539062 171.601562 190.804688 173.558594 185.429688 171.601562 C 188.023438 176.675781 193.003906 175.644531 194.539062 171.601562 Z M 209.984375 115.875 C 209.984375 115.875 217.53125 105.613281 223.757812 102.121094 C 223.996094 101.222656 220.660156 100.480469 215.28125 104.632812 C 209.902344 108.785156 203.730469 114.152344 203.730469 114.152344 Z M 174.886719 114.152344 C 174.886719 114.152344 168.714844 108.785156 163.335938 104.632812 C 157.957031 100.480469 154.621094 101.222656 154.859375 102.121094 C 161.085938 105.613281 168.632812 115.875 168.632812 115.875 Z M 174.886719 114.152344 " fill-opacity="0.298" fill-rule="nonzero"/>
        <path fill="#ffffff" d="M 154.621094 101.222656 C 154.621094 101.222656 145.085938 118.886719 145.746094 138.433594 C 140.078125 142.929688 137.113281 147.53125 134.09375 155.253906 C 133.984375 150.574219 136.792969 145.230469 141.457031 137.453125 C 142.171875 127.511719 148.105469 107.25 154.621094 101.222656 Z M 141.695312 180.25 C 141.695312 180.25 142.675781 180.355469 143.441406 176.835938 C 133.855469 167.234375 133.933594 155.730469 133.933594 155.730469 C 128.925781 166.734375 141.695312 180.25 141.695312 180.25 Z M 139.707031 200.324219 C 140.371094 200.324219 141.855469 200.324219 143.019531 200.324219 C 139.070312 195.402344 143.441406 183.289062 143.441406 183.289062 C 135.894531 193.207031 137.90625 200.324219 139.707031 200.324219 Z M 235.253906 183.289062 C 235.253906 183.289062 239.597656 195.402344 235.679688 200.324219 C 237.027344 200.324219 238.113281 200.324219 238.804688 200.324219 C 240.128906 199.898438 240.339844 199.847656 240.339844 199.847656 C 240.339844 199.847656 242.804688 193.207031 235.253906 183.289062 Z M 244.472656 155.757812 C 244.472656 155.757812 244.550781 167.261719 234.960938 176.863281 C 235.730469 180.378906 236.898438 181.410156 236.898438 181.410156 C 236.898438 181.410156 249.480469 166.734375 244.472656 155.757812 Z M 244.472656 155.757812 " fill-opacity="1" fill-rule="nonzero"/>
    </g>
    <g clip-path="url(#710b602ee7)">
        <path fill="#2b0806" d="M 216.074219 131.558594 C 212.421875 131.742188 200.6875 136.054688 200.738281 137.402344 C 200.84375 139.886719 209.375 143.140625 215.414062 145.628906 C 221.453125 148.113281 220.207031 144.753906 217.054688 142.746094 C 218.195312 143.40625 220.445312 142.984375 218.726562 141.394531 C 217.53125 140.3125 210.25 137.375 210.25 137.375 C 210.25 137.375 214.167969 136.421875 216.949219 135.65625 C 219.574219 134.941406 219.121094 133.804688 216.605469 133.9375 C 217.824219 133.566406 219.253906 131.398438 216.074219 131.558594 Z M 198.433594 142.875 C 197.640625 144.515625 195.890625 145.917969 194.167969 145.257812 C 192.449219 144.597656 191.230469 141.820312 189.269531 141.820312 C 187.308594 141.820312 186.117188 144.597656 184.367188 145.257812 C 182.648438 145.917969 180.898438 144.515625 180.105469 142.875 C 177.691406 144.171875 173.695312 147.636719 173.957031 154.566406 C 174.222656 161.496094 179.097656 166.945312 189.269531 166.945312 C 199.414062 166.945312 204.316406 161.46875 204.578125 154.566406 C 204.816406 147.636719 200.816406 144.171875 198.433594 142.875 Z M 163.125 145.628906 C 169.164062 143.140625 177.691406 139.886719 177.800781 137.402344 C 177.851562 136.054688 166.089844 131.742188 162.460938 131.558594 C 159.285156 131.398438 160.714844 133.566406 161.957031 133.964844 C 159.441406 133.804688 158.992188 134.96875 161.613281 135.683594 C 164.394531 136.449219 168.316406 137.402344 168.316406 137.402344 C 168.316406 137.402344 161.03125 140.339844 159.839844 141.421875 C 158.117188 143.007812 160.371094 143.433594 161.507812 142.769531 C 158.328125 144.753906 157.085938 148.113281 163.125 145.628906 Z M 221.851562 108.257812 C 221.851562 108.257812 224.128906 117.777344 222.882812 125.605469 C 224.738281 126.398438 230.75 134.359375 230.75 134.359375 C 230.75 134.359375 229.71875 129.019531 225.453125 124.46875 C 226.40625 119.285156 224.738281 110.953125 221.851562 108.257812 Z M 236.898438 181.386719 C 254.828125 163.929688 243.675781 144.808594 238.140625 137.613281 C 237.53125 114.179688 226.117188 99.15625 223.226562 99.503906 C 213.453125 102.121094 204.023438 111.695312 202.671875 113.121094 C 197.03125 111.640625 191.839844 111.484375 189.269531 111.535156 C 186.699219 111.507812 181.507812 111.640625 175.867188 113.121094 C 174.488281 111.695312 165.085938 102.121094 155.308594 99.503906 C 152.394531 99.15625 141.007812 114.179688 140.398438 137.613281 C 134.886719 144.78125 123.734375 163.902344 141.640625 181.386719 L 141.613281 181.464844 C 140.316406 184.585938 139.019531 187.8125 137.828125 190.90625 C 137.402344 192.042969 135.761719 196.75 136.238281 200.324219 C 137.085938 200.324219 139.628906 200.324219 139.734375 200.324219 C 138.570312 199.078125 139.707031 193.921875 140.265625 192.28125 C 142.25 186.382812 145.113281 178.6875 147.152344 174.058594 C 150.753906 165.832031 153.667969 162.289062 156.449219 162.84375 C 158.222656 163.1875 159.308594 166.734375 159.308594 166.734375 C 159.308594 166.734375 161.402344 162.820312 163.839844 163.214844 C 165.800781 163.53125 165.695312 165.648438 165.585938 167.632812 C 167.152344 164.0625 171.308594 163.109375 172.105469 167.871094 C 172.632812 171.097656 167.601562 196.089844 167.152344 200.324219 C 167.152344 200.324219 169.003906 200.324219 170.144531 200.324219 C 170.410156 197.625 172.582031 183.421875 173.347656 177.789062 C 174.171875 171.707031 174.726562 168.714844 173.746094 166.019531 C 171.761719 160.570312 167.628906 162.183594 166.804688 163.851562 C 167.28125 159.960938 162.066406 159.328125 159.761719 163.269531 C 158.566406 158.691406 153.324219 158.21875 148.898438 165.914062 C 147.203125 168.875 144.980469 173.636719 142.703125 178.980469 C 138.648438 175.117188 125.007812 159.699219 142.726562 137.957031 C 142.726562 132.429688 145.375 114.550781 154.832031 102.121094 C 156.421875 101.328125 164.820312 106.0625 173.375 113.917969 C 171.785156 114.445312 170.171875 115.078125 168.609375 115.875 C 169.191406 116.5625 177.164062 113.996094 189.296875 113.996094 C 201.425781 113.996094 209.402344 116.5625 209.984375 115.875 C 208.421875 115.078125 206.804688 114.445312 205.214844 113.917969 C 213.773438 106.0625 222.195312 101.328125 223.757812 102.121094 C 233.214844 114.550781 235.863281 132.457031 235.863281 137.957031 C 253.585938 159.699219 239.941406 175.117188 235.890625 178.980469 C 233.613281 173.664062 231.386719 168.875 229.691406 165.914062 C 225.269531 158.242188 220.023438 158.71875 218.832031 163.269531 C 216.527344 159.328125 211.308594 159.960938 211.785156 163.851562 C 210.9375 162.210938 206.832031 160.570312 204.84375 166.019531 C 203.863281 168.714844 204.394531 171.707031 205.242188 177.789062 C 206.011719 183.421875 208.183594 197.625 208.445312 200.324219 C 209.558594 200.324219 211.441406 200.324219 211.441406 200.324219 C 211.015625 196.089844 205.957031 171.125 206.488281 167.871094 C 207.28125 163.082031 211.414062 164.035156 213.003906 167.632812 C 212.871094 165.648438 212.765625 163.53125 214.75 163.214844 C 217.1875 162.820312 219.28125 166.734375 219.28125 166.734375 C 219.28125 166.734375 220.367188 163.1875 222.140625 162.84375 C 224.921875 162.289062 227.8125 165.832031 231.441406 174.058594 C 233.480469 178.6875 236.339844 186.382812 238.328125 192.28125 C 238.882812 193.921875 240.023438 199.078125 238.855469 200.324219 C 238.960938 200.324219 241.503906 200.324219 242.351562 200.324219 C 242.828125 196.75 241.1875 192.042969 240.765625 190.90625 C 239.519531 187.785156 238.195312 184.53125 236.898438 181.386719 Z M 137.136719 127.140625 C 133.640625 124.125 130.171875 121.109375 126.703125 118.09375 C 125.878906 117.382812 123.574219 118.597656 124.6875 119.550781 C 128.160156 122.566406 131.628906 125.578125 135.097656 128.59375 C 135.945312 129.308594 138.222656 128.09375 137.136719 127.140625 Z M 133.535156 131.558594 C 128.742188 130.023438 123.945312 128.515625 119.152344 126.980469 C 118.039062 126.636719 116.078125 128.226562 117.640625 128.726562 C 122.4375 130.261719 127.230469 131.769531 132.027344 133.300781 C 133.136719 133.648438 135.097656 132.03125 133.535156 131.558594 Z M 132.398438 137.085938 C 129.164062 137.929688 125.960938 138.804688 122.726562 139.648438 C 121.140625 140.074219 121.535156 141.582031 123.125 141.15625 C 126.359375 140.3125 129.5625 139.4375 132.792969 138.59375 C 134.382812 138.167969 133.984375 136.660156 132.398438 137.085938 Z M 152.6875 124.46875 C 148.449219 129.019531 147.390625 134.359375 147.390625 134.359375 C 147.390625 134.359375 153.402344 126.398438 155.257812 125.605469 C 154.011719 117.777344 156.289062 108.257812 156.289062 108.257812 C 153.429688 110.953125 151.761719 119.285156 152.6875 124.46875 Z M 152.6875 124.46875 " fill-opacity="1" fill-rule="nonzero"/>
    </g>
    <path fill="#ef5454" d="M 202.355469 151.5 C 202.460938 152.238281 202.511719 153.03125 202.460938 153.90625 C 202.222656 160.042969 197.90625 164.882812 188.898438 164.882812 C 185.058594 164.882812 182.089844 164.007812 179.917969 162.527344 C 186.886719 151.234375 199.121094 151.261719 202.355469 151.5 Z M 202.355469 151.5 C 202.460938 152.238281 202.511719 153.03125 202.460938 153.90625 C 202.222656 160.042969 197.90625 164.882812 188.898438 164.882812 C 185.058594 164.882812 182.089844 164.007812 179.917969 162.527344 C 186.886719 151.234375 199.121094 151.261719 202.355469 151.5 Z M 202.355469 151.5 " fill-opacity="1" fill-rule="nonzero"/>
    <g clip-path="url(#dc3a7b16ab)">
        <path fill="#000000" d="M 279.386719 286.402344 C 273.449219 286.402344 266.261719 283.058594 262.804688 281.453125 C 262.199219 281.171875 261.722656 280.949219 261.417969 280.820312 C 261.292969 280.78125 261.164062 280.753906 261.035156 280.734375 L 260.785156 280.6875 C 260.027344 280.527344 259.257812 280.386719 258.402344 280.234375 C 249.644531 278.628906 240.679688 277.25 232.007812 275.921875 C 229.691406 275.566406 227.375 275.210938 225.058594 274.851562 L 223.339844 274.582031 C 221.675781 274.320312 219.945312 274.054688 218.265625 273.800781 C 217.941406 273.75 217.613281 273.726562 217.285156 273.730469 L 158.472656 273.730469 C 157.820312 273.722656 157.175781 273.765625 156.53125 273.859375 L 149.867188 274.890625 C 147.472656 275.269531 145.078125 275.640625 142.679688 276.011719 C 134.261719 277.320312 125.554688 278.671875 117.03125 280.191406 C 116.234375 280.332031 115.390625 280.484375 114.570312 280.648438 L 114.265625 280.707031 C 114.09375 280.730469 113.929688 280.769531 113.765625 280.820312 C 113.460938 280.945312 112.980469 281.167969 112.378906 281.453125 C 108.921875 283.058594 101.730469 286.402344 95.796875 286.402344 C 79.832031 286.402344 66.84375 273.46875 66.84375 257.574219 C 66.84375 253.695312 68.046875 250.042969 69.113281 246.8125 C 69.914062 244.378906 70.671875 242.082031 70.683594 240.285156 C 70.691406 238.484375 69.925781 236.15625 69.109375 233.699219 C 68.046875 230.5 66.84375 226.871094 66.84375 223.019531 C 66.84375 207.125 79.832031 194.191406 95.796875 194.191406 C 100.957031 194.191406 107.355469 197.035156 111.179688 198.734375 C 112.050781 199.121094 113.039062 199.5625 113.359375 199.65625 C 119.953125 200.464844 126.523438 201.742188 132.875 202.976562 C 143.253906 204.992188 153.984375 207.078125 164.789062 207.082031 L 214.589844 207.109375 L 214.625 207.109375 C 224.058594 207.109375 233.738281 205.054688 243.09375 203.070312 C 249.226562 201.769531 255.566406 200.425781 261.820312 199.65625 C 262.140625 199.5625 263.128906 199.121094 264 198.734375 C 267.816406 197.035156 274.222656 194.191406 279.382812 194.191406 C 295.34375 194.191406 308.335938 207.125 308.335938 223.019531 C 308.335938 226.871094 307.128906 230.5 306.070312 233.699219 C 305.253906 236.15625 304.488281 238.476562 304.496094 240.285156 C 304.507812 242.089844 305.265625 244.378906 306.066406 246.8125 C 307.125 250.035156 308.335938 253.6875 308.335938 257.574219 C 308.339844 273.46875 295.355469 286.402344 279.386719 286.402344 Z M 158.472656 270.148438 L 217.285156 270.148438 C 217.792969 270.144531 218.300781 270.183594 218.800781 270.257812 C 220.496094 270.515625 222.226562 270.78125 223.890625 271.042969 L 225.605469 271.3125 L 232.550781 272.382812 C 241.242188 273.714844 250.238281 275.097656 259.050781 276.710938 C 259.925781 276.867188 260.722656 277.011719 261.523438 277.179688 L 261.707031 277.214844 C 262.085938 277.273438 262.453125 277.375 262.8125 277.515625 C 263.183594 277.667969 263.691406 277.90625 264.332031 278.203125 C 267.554688 279.703125 274.257812 282.816406 279.382812 282.816406 C 280.214844 282.816406 281.042969 282.773438 281.867188 282.691406 C 282.695312 282.613281 283.515625 282.488281 284.328125 282.328125 C 285.140625 282.164062 285.945312 281.964844 286.738281 281.722656 C 287.535156 281.484375 288.3125 281.207031 289.082031 280.886719 C 289.847656 280.570312 290.597656 280.21875 291.328125 279.828125 C 292.058594 279.4375 292.769531 279.015625 293.460938 278.554688 C 294.148438 278.097656 294.816406 277.605469 295.457031 277.078125 C 296.097656 276.554688 296.710938 276 297.300781 275.417969 C 297.886719 274.832031 298.441406 274.222656 298.96875 273.582031 C 299.496094 272.945312 299.988281 272.28125 300.453125 271.59375 C 300.914062 270.90625 301.339844 270.199219 301.730469 269.472656 C 302.121094 268.742188 302.476562 267.996094 302.796875 267.234375 C 303.113281 266.46875 303.394531 265.695312 303.632812 264.902344 C 303.875 264.113281 304.078125 263.3125 304.242188 262.5 C 304.402344 261.691406 304.527344 260.875 304.609375 260.054688 C 304.691406 259.230469 304.730469 258.40625 304.730469 257.582031 C 304.730469 254.273438 303.671875 251.054688 302.644531 247.941406 C 301.75 245.234375 300.90625 242.675781 300.894531 240.316406 C 300.878906 237.921875 301.742188 235.328125 302.648438 232.585938 C 303.671875 229.5 304.730469 226.300781 304.730469 223.027344 C 304.730469 222.203125 304.691406 221.378906 304.609375 220.554688 C 304.527344 219.734375 304.402344 218.917969 304.242188 218.105469 C 304.078125 217.296875 303.875 216.496094 303.632812 215.707031 C 303.394531 214.914062 303.113281 214.136719 302.796875 213.375 C 302.476562 212.613281 302.121094 211.867188 301.730469 211.136719 C 301.339844 210.410156 300.914062 209.699219 300.453125 209.015625 C 299.992188 208.328125 299.496094 207.664062 298.96875 207.027344 C 298.445312 206.386719 297.886719 205.773438 297.300781 205.191406 C 296.714844 204.605469 296.097656 204.050781 295.457031 203.527344 C 294.816406 203.003906 294.152344 202.511719 293.460938 202.050781 C 292.769531 201.59375 292.058594 201.167969 291.328125 200.777344 C 290.597656 200.390625 289.847656 200.035156 289.082031 199.71875 C 288.3125 199.402344 287.535156 199.125 286.738281 198.882812 C 285.945312 198.644531 285.140625 198.441406 284.328125 198.28125 C 283.515625 198.117188 282.695312 197.996094 281.867188 197.914062 C 281.042969 197.832031 280.214844 197.789062 279.382812 197.789062 C 274.992188 197.789062 268.796875 200.535156 265.472656 202.011719 C 263.589844 202.855469 262.914062 203.136719 262.328125 203.210938 C 256.210938 203.960938 249.925781 205.292969 243.847656 206.585938 C 234.308594 208.609375 224.441406 210.703125 214.625 210.703125 L 214.585938 210.703125 L 164.785156 210.679688 C 153.632812 210.679688 142.738281 208.554688 132.183594 206.507812 C 125.871094 205.277344 119.339844 204.011719 112.847656 203.214844 C 112.265625 203.144531 111.585938 202.851562 109.707031 202.015625 C 106.382812 200.539062 100.1875 197.796875 95.792969 197.796875 C 94.964844 197.796875 94.136719 197.839844 93.3125 197.921875 C 92.484375 198.003906 91.667969 198.125 90.851562 198.285156 C 90.039062 198.449219 89.234375 198.648438 88.441406 198.890625 C 87.648438 199.132812 86.867188 199.410156 86.101562 199.726562 C 85.335938 200.042969 84.585938 200.394531 83.855469 200.785156 C 83.125 201.175781 82.414062 201.601562 81.722656 202.058594 C 81.035156 202.519531 80.371094 203.007812 79.726562 203.535156 C 79.085938 204.058594 78.472656 204.613281 77.886719 205.195312 C 77.300781 205.78125 76.742188 206.390625 76.214844 207.03125 C 75.691406 207.667969 75.195312 208.332031 74.734375 209.015625 C 74.273438 209.703125 73.847656 210.410156 73.457031 211.140625 C 73.066406 211.867188 72.710938 212.613281 72.390625 213.375 C 72.074219 214.136719 71.792969 214.914062 71.550781 215.707031 C 71.3125 216.496094 71.109375 217.296875 70.945312 218.105469 C 70.785156 218.914062 70.660156 219.730469 70.578125 220.554688 C 70.496094 221.375 70.453125 222.199219 70.453125 223.023438 C 70.453125 226.296875 71.511719 229.492188 72.535156 232.582031 C 73.445312 235.324219 74.304688 237.917969 74.289062 240.3125 C 74.277344 242.671875 73.441406 245.230469 72.539062 247.9375 C 71.515625 251.050781 70.453125 254.269531 70.453125 257.574219 C 70.453125 258.402344 70.496094 259.226562 70.578125 260.050781 C 70.660156 260.871094 70.78125 261.6875 70.945312 262.496094 C 71.105469 263.308594 71.308594 264.109375 71.550781 264.898438 C 71.792969 265.6875 72.070312 266.464844 72.390625 267.230469 C 72.707031 267.992188 73.0625 268.738281 73.453125 269.46875 C 73.847656 270.195312 74.273438 270.902344 74.734375 271.589844 C 75.195312 272.277344 75.6875 272.941406 76.214844 273.578125 C 76.742188 274.21875 77.296875 274.828125 77.886719 275.414062 C 78.472656 275.996094 79.085938 276.550781 79.726562 277.074219 C 80.371094 277.601562 81.035156 278.089844 81.726562 278.550781 C 82.414062 279.011719 83.125 279.433594 83.859375 279.824219 C 84.589844 280.214844 85.339844 280.566406 86.105469 280.882812 C 86.871094 281.199219 87.652344 281.480469 88.445312 281.71875 C 89.238281 281.960938 90.042969 282.160156 90.859375 282.324219 C 91.671875 282.484375 92.492188 282.605469 93.316406 282.6875 C 94.144531 282.769531 94.96875 282.8125 95.800781 282.8125 C 100.933594 282.8125 107.636719 279.699219 110.851562 278.199219 C 111.488281 277.902344 112.003906 277.664062 112.375 277.511719 C 112.777344 277.355469 113.191406 277.242188 113.617188 277.179688 L 113.851562 277.136719 C 114.710938 276.960938 115.578125 276.804688 116.394531 276.660156 C 124.957031 275.132812 133.683594 273.78125 142.121094 272.46875 C 144.515625 272.097656 146.910156 271.722656 149.304688 271.351562 L 155.976562 270.316406 C 156.804688 270.195312 157.636719 270.136719 158.472656 270.144531 Z M 113.292969 199.652344 Z M 261.898438 199.652344 Z M 261.898438 199.652344 " fill-opacity="1" fill-rule="nonzero"/>
    </g>
    <path fill="#000000" d="M 97.429688 202.636719 C 90.855469 202.636719 84.820312 206.175781 80.957031 211.351562 C 78.972656 214 77.617188 216.9375 76.882812 220.160156 C 76.523438 221.757812 76.347656 223.375 76.363281 225.011719 C 76.363281 225.496094 76.203125 226.675781 76.703125 226.855469 C 77.46875 227.128906 78.398438 225.722656 78.609375 225.199219 C 78.980469 224.296875 79.007812 223.300781 79.128906 222.332031 C 79.371094 220.414062 80.558594 218.125 81.414062 216.371094 C 82.417969 214.292969 83.75 212.457031 85.414062 210.851562 C 86.839844 209.507812 88.453125 208.445312 90.257812 207.667969 C 92.0625 206.890625 93.945312 206.445312 95.90625 206.328125 C 97.179688 206.246094 100.667969 207.296875 101.707031 206.628906 C 102.808594 205.917969 102.324219 203.460938 101.1875 203.015625 C 100.078125 202.5625 98.601562 202.636719 97.429688 202.636719 Z M 97.429688 202.636719 " fill-opacity="1" fill-rule="nonzero"/>
    <g fill="#000000" fill-opacity="1">
        <g transform="translate(93.612468, 245.897845)">
            <g>
                <path d="M 3.761719 -0.0664062 C 0.492188 0.523438 1.179688 -3.535156 1.179688 -5.597656 C 1.179688 -9.328125 1.015625 -13.058594 0.980469 -16.789062 C 0.980469 -18.425781 0.980469 -20.453125 2.847656 -20.746094 L 2.976562 -20.746094 C 7.167969 -21.859375 15.085938 -21.304688 15.609375 -15.707031 C 15.839844 -12.992188 14.464844 -10.113281 12.304688 -8.507812 C 11.585938 -7.953125 5.988281 -6.019531 5.957031 -5.496094 C 5.859375 -3.664062 6.183594 -0.457031 3.761719 -0.0664062 Z M 6.21875 -8.902344 C 7.230469 -9.292969 12.566406 -12.273438 10.472656 -14.039062 C 9.652344 -14.726562 8.214844 -14.398438 7.265625 -14.332031 C 6.054688 -14.234375 6.316406 -9.949219 6.21875 -8.902344 Z M 6.21875 -8.902344 "/>
            </g>
        </g>
    </g>
    <g fill="#000000" fill-opacity="1">
        <g transform="translate(108.434354, 245.897845)">
            <g>
                <path d="M 1.929688 -0.882812 C 0.328125 -2.847656 1.242188 -8.378906 1.242188 -10.636719 C 1.277344 -13.058594 1.375 -15.511719 1.40625 -17.964844 C 1.40625 -20.386719 2.914062 -20.550781 5.007812 -20.617188 C 6.285156 -20.683594 12.335938 -21.371094 12.828125 -19.503906 C 13.777344 -15.90625 7.230469 -17.117188 6.285156 -15.019531 C 4.910156 -12.042969 14.921875 -14.300781 11.488281 -10.898438 C 10.144531 -9.589844 7.917969 -10.015625 6.480469 -8.835938 C 5.792969 -8.3125 4.746094 -6.152344 6.054688 -5.988281 C 8.476562 -6.054688 16.460938 -7.265625 12.761719 -2.257812 C 11.453125 -0.457031 3.46875 1.015625 1.929688 -0.882812 Z M 1.929688 -0.882812 "/>
            </g>
        </g>
    </g>
    <g fill="#000000" fill-opacity="1">
        <g transform="translate(122.307362, 245.897845)">
            <g>
                <path d="M 9.292969 -0.457031 C 6.347656 1.277344 5.890625 -2.355469 5.792969 -4.320312 C 5.660156 -5.988281 5.660156 -7.65625 5.695312 -9.328125 C 5.695312 -10.40625 6.347656 -14.171875 5.136719 -14.007812 C 5.367188 -13.972656 0.816406 -12.925781 0.980469 -17.441406 C 1.078125 -20.484375 3.4375 -20.714844 6.019531 -20.648438 C 8.804688 -20.585938 11.847656 -20.714844 14.628906 -20.257812 C 18.457031 -19.636719 15.480469 -15.675781 13.15625 -15.117188 C 11.585938 -14.726562 11.550781 -15.054688 11.453125 -13.1875 C 11.386719 -11.617188 11.257812 -10.015625 11.125 -8.441406 C 10.964844 -6.480469 11.257812 -1.636719 9.292969 -0.457031 Z M 9.292969 -0.457031 "/>
            </g>
        </g>
    </g>
    <g fill="#000000" fill-opacity="1">
        <g transform="translate(137.947237, 245.897845)">
            <g/>
        </g>
    </g>
    <g fill="#000000" fill-opacity="1">
        <g transform="translate(147.272164, 245.897845)">
            <g>
                <path d="M 3.761719 -0.0664062 C 0.492188 0.523438 1.179688 -3.535156 1.179688 -5.597656 C 1.179688 -9.328125 1.015625 -13.058594 0.980469 -16.789062 C 0.980469 -18.425781 0.980469 -20.453125 2.847656 -20.746094 L 2.976562 -20.746094 C 7.167969 -21.859375 15.085938 -21.304688 15.609375 -15.707031 C 15.839844 -12.992188 14.464844 -10.113281 12.304688 -8.507812 C 11.585938 -7.953125 5.988281 -6.019531 5.957031 -5.496094 C 5.859375 -3.664062 6.183594 -0.457031 3.761719 -0.0664062 Z M 6.21875 -8.902344 C 7.230469 -9.292969 12.566406 -12.273438 10.472656 -14.039062 C 9.652344 -14.726562 8.214844 -14.398438 7.265625 -14.332031 C 6.054688 -14.234375 6.316406 -9.949219 6.21875 -8.902344 Z M 6.21875 -8.902344 "/>
            </g>
        </g>
    </g>
    <g fill="#000000" fill-opacity="1">
        <g transform="translate(162.094051, 245.897845)">
            <g>
                <path d="M 0.132812 0.261719 C -0.554688 -1.867188 1.703125 -5.660156 2.453125 -7.558594 C 3.078125 -9.03125 6.742188 -20.617188 9.589844 -19.40625 C 12.4375 -18.128906 15.480469 -4.1875 14.59375 -1.472656 C 13.382812 2.355469 11.550781 -1.867188 10.503906 -2.652344 C 9.390625 -3.46875 4.875 -3.730469 4.253906 -2.226562 C 3.863281 -1.277344 1.308594 3.960938 0.132812 0.261719 Z M 7.132812 -6.808594 C 10.472656 -6.96875 8.378906 -10.113281 8.050781 -10.4375 C 7.265625 -9.753906 4.777344 -6.675781 7.132812 -6.808594 Z M 7.132812 -6.808594 "/>
            </g>
        </g>
    </g>
    <g fill="#000000" fill-opacity="1">
        <g transform="translate(177.014093, 245.897845)">
            <g>
                <path d="M 4.125 -0.0976562 C 2.617188 0.261719 1.472656 -0.328125 1.375 -1.929688 C 1.078125 -5.757812 1.308594 -9.652344 1.179688 -13.546875 C 1.113281 -15.542969 0.261719 -20.289062 2.914062 -20.714844 C 2.8125 -20.714844 2.78125 -20.714844 2.945312 -20.746094 C 9.128906 -22.351562 18.554688 -19.601562 14.988281 -11.75 C 14.464844 -10.601562 13.710938 -9.554688 12.730469 -8.738281 C 11.8125 -7.953125 13.746094 -6.085938 14.203125 -5.234375 C 16.035156 -2.09375 14.367188 1.636719 10.964844 -1.605469 C 9.882812 -2.652344 9 -3.925781 8.3125 -5.269531 C 7.296875 -7.167969 6.121094 -5.726562 5.988281 -4.1875 C 5.890625 -2.714844 5.921875 -0.523438 4.125 -0.0976562 Z M 6.347656 -8.867188 C 7.363281 -9.292969 12.664062 -12.273438 10.570312 -14.039062 C 9.753906 -14.726562 8.34375 -14.398438 7.363281 -14.332031 C 6.183594 -14.234375 6.414062 -9.949219 6.347656 -8.867188 Z M 6.347656 -8.867188 "/>
            </g>
        </g>
    </g>
    <g fill="#000000" fill-opacity="1">
        <g transform="translate(192.948448, 245.897845)">
            <g>
                <path d="M 1.929688 -0.882812 C 0.328125 -2.847656 1.242188 -8.378906 1.242188 -10.636719 C 1.277344 -13.058594 1.375 -15.511719 1.40625 -17.964844 C 1.40625 -20.386719 2.914062 -20.550781 5.007812 -20.617188 C 6.285156 -20.683594 12.335938 -21.371094 12.828125 -19.503906 C 13.777344 -15.90625 7.230469 -17.117188 6.285156 -15.019531 C 4.910156 -12.042969 14.921875 -14.300781 11.488281 -10.898438 C 10.144531 -9.589844 7.917969 -10.015625 6.480469 -8.835938 C 5.792969 -8.3125 4.746094 -6.152344 6.054688 -5.988281 C 8.476562 -6.054688 16.460938 -7.265625 12.761719 -2.257812 C 11.453125 -0.457031 3.46875 1.015625 1.929688 -0.882812 Z M 1.929688 -0.882812 "/>
            </g>
        </g>
    </g>
    <g fill="#000000" fill-opacity="1">
        <g transform="translate(206.821453, 245.897845)">
            <g>
                <path d="M 2.550781 -0.0976562 C 0.0664062 -0.6875 1.308594 -9.457031 1.242188 -11.125 C 1.210938 -13.484375 1.113281 -15.871094 1.144531 -18.226562 C 1.144531 -20.421875 2.390625 -20.714844 4.320312 -20.847656 C 6.546875 -20.976562 6.90625 -19.375 6.9375 -17.410156 C 8.441406 -15.28125 9.621094 -12.925781 11.160156 -10.832031 C 11.453125 -13.382812 10.800781 -20.617188 14.59375 -20.78125 C 17.246094 -20.910156 16.460938 -13.484375 16.460938 -12.042969 C 16.460938 -9.816406 17.738281 -2.945312 15.183594 -1.605469 C 10.175781 1.015625 7.527344 -7.363281 6.414062 -9.523438 C 6.183594 -6.9375 7.101562 0.980469 2.550781 -0.0976562 Z M 2.550781 -0.0976562 "/>
            </g>
        </g>
    </g>
    <g fill="#000000" fill-opacity="1">
        <g transform="translate(223.770119, 245.897845)">
            <g>
                <path d="M 9.292969 -0.457031 C 6.347656 1.277344 5.890625 -2.355469 5.792969 -4.320312 C 5.660156 -5.988281 5.660156 -7.65625 5.695312 -9.328125 C 5.695312 -10.40625 6.347656 -14.171875 5.136719 -14.007812 C 5.367188 -13.972656 0.816406 -12.925781 0.980469 -17.441406 C 1.078125 -20.484375 3.4375 -20.714844 6.019531 -20.648438 C 8.804688 -20.585938 11.847656 -20.714844 14.628906 -20.257812 C 18.457031 -19.636719 15.480469 -15.675781 13.15625 -15.117188 C 11.585938 -14.726562 11.550781 -15.054688 11.453125 -13.1875 C 11.386719 -11.617188 11.257812 -10.015625 11.125 -8.441406 C 10.964844 -6.480469 11.257812 -1.636719 9.292969 -0.457031 Z M 9.292969 -0.457031 "/>
            </g>
        </g>
    </g>
    <g fill="#000000" fill-opacity="1">
        <g transform="translate(239.409993, 245.897845)">
            <g>
                <path d="M 1.570312 -0.816406 C 0.523438 -3.402344 1.277344 -8.640625 1.210938 -11.847656 C 1.144531 -15.21875 -0.328125 -22.480469 5.496094 -20.847656 C 8.605469 -19.996094 6.382812 -9.816406 6.21875 -7.789062 C 6.054688 -5.726562 6.347656 -3.109375 5.398438 -1.179688 C 4.875 -0.0976562 2.160156 0.65625 1.570312 -0.816406 Z M 1.570312 -0.816406 "/>
            </g>
        </g>
    </g>
    <g fill="#000000" fill-opacity="1">
        <g transform="translate(246.051904, 245.897845)">
            <g>
                <path d="M 2.550781 -0.0976562 C 0.0664062 -0.6875 1.308594 -9.457031 1.242188 -11.125 C 1.210938 -13.484375 1.113281 -15.871094 1.144531 -18.226562 C 1.144531 -20.421875 2.390625 -20.714844 4.320312 -20.847656 C 6.546875 -20.976562 6.90625 -19.375 6.9375 -17.410156 C 8.441406 -15.28125 9.621094 -12.925781 11.160156 -10.832031 C 11.453125 -13.382812 10.800781 -20.617188 14.59375 -20.78125 C 17.246094 -20.910156 16.460938 -13.484375 16.460938 -12.042969 C 16.460938 -9.816406 17.738281 -2.945312 15.183594 -1.605469 C 10.175781 1.015625 7.527344 -7.363281 6.414062 -9.523438 C 6.183594 -6.9375 7.101562 0.980469 2.550781 -0.0976562 Z M 2.550781 -0.0976562 "/>
            </g>
        </g>
    </g>
    <g fill="#000000" fill-opacity="1">
        <g transform="translate(263.000579, 245.897845)">
            <g>
                <path d="M 5.890625 -0.589844 C -3.011719 -4.058594 1.308594 -20.0625 10.078125 -20.714844 C 13.777344 -21.007812 20.976562 -16.199219 16.066406 -12.632812 C 13.941406 -11.09375 12.632812 -11.976562 11.878906 -14.070312 C 9.753906 -20.125 1.046875 -4.125 9.621094 -4.125 C 10.210938 -4.125 11.191406 -4.386719 11.386719 -5.039062 C 11.683594 -5.890625 9.589844 -5.726562 9.195312 -5.824219 C 7.625 -6.183594 7.230469 -9.066406 8.867188 -9.589844 C 11.160156 -10.308594 13.777344 -10.4375 16.167969 -10.4375 C 18.785156 -10.4375 17.410156 -6.96875 16.917969 -5.53125 C 15.347656 -1.015625 10.308594 1.144531 5.890625 -0.589844 Z M 5.890625 -0.589844 "/>
            </g>
        </g>
    </g>
    <g fill="#000000" fill-opacity="1">
        <g transform="translate(187.076311, 291.140202)">
            <g/>
        </g>
    </g>
</svg>